<?xml version="1.0" encoding="UTF-8" standalone="no"?>
<!DOCTYPE svg PUBLIC "-//W3C//DTD SVG 1.1//EN"
 "http://www.w3.org/Graphics/SVG/1.1/DTD/svg11.dtd">
<!-- Generated by graphviz version 2.40.1 (20161225.0304)
 -->
<!-- Title: %3 Pages: 1 -->
<svg width="249pt" height="404pt"
 viewBox="0.00 0.00 249.28 404.00" xmlns="http://www.w3.org/2000/svg" xmlns:xlink="http://www.w3.org/1999/xlink">
<g id="graph0" class="graph" transform="scale(1 1) rotate(0) translate(4 400)">
<title>%3</title>
<polygon fill="#ffffff" stroke="transparent" points="-4,4 -4,-400 245.283,-400 245.283,4 -4,4"/>
<!-- A -->
<g id="node1" class="node">
<title>A</title>
<ellipse fill="none" stroke="#000000" cx="120.6415" cy="-378" rx="47.3647" ry="18"/>
<text text-anchor="middle" x="120.6415" y="-373.8" font-family="Times,serif" font-size="14.00" fill="#000000">Load Data</text>
</g>
<!-- B -->
<g id="node2" class="node">
<title>B</title>
<ellipse fill="none" stroke="#000000" cx="120.6415" cy="-306" rx="51.7164" ry="18"/>
<text text-anchor="middle" x="120.6415" y="-301.8" font-family="Times,serif" font-size="14.00" fill="#000000">Group Data</text>
</g>
<!-- A&#45;&gt;B -->
<g id="edge1" class="edge">
<title>A&#45;&gt;B</title>
<path fill="none" stroke="#000000" d="M120.6415,-359.8314C120.6415,-352.131 120.6415,-342.9743 120.6415,-334.4166"/>
<polygon fill="#000000" stroke="#000000" points="124.1416,-334.4132 120.6415,-324.4133 117.1416,-334.4133 124.1416,-334.4132"/>
</g>
<!-- L -->
<g id="node3" class="node">
<title>L</title>
<ellipse fill="none" stroke="#000000" cx="120.6415" cy="-234" rx="46.8719" ry="18"/>
<text text-anchor="middle" x="120.6415" y="-229.8" font-family="Times,serif" font-size="14.00" fill="#000000">Aggregate</text>
</g>
<!-- B&#45;&gt;L -->
<g id="edge2" class="edge">
<title>B&#45;&gt;L</title>
<path fill="none" stroke="#000000" d="M120.6415,-287.8314C120.6415,-280.131 120.6415,-270.9743 120.6415,-262.4166"/>
<polygon fill="#000000" stroke="#000000" points="124.1416,-262.4132 120.6415,-252.4133 117.1416,-262.4133 124.1416,-262.4132"/>
</g>
<!-- S -->
<g id="node4" class="node">
<title>S</title>
<ellipse fill="none" stroke="#000000" cx="120.6415" cy="-162" rx="120.7832" ry="18"/>
<text text-anchor="middle" x="120.6415" y="-157.8" font-family="Times,serif" font-size="14.00" fill="#000000">Sort on rating from high to low</text>
</g>
<!-- L&#45;&gt;S -->
<g id="edge3" class="edge">
<title>L&#45;&gt;S</title>
<path fill="none" stroke="#000000" d="M120.6415,-215.8314C120.6415,-208.131 120.6415,-198.9743 120.6415,-190.4166"/>
<polygon fill="#000000" stroke="#000000" points="124.1416,-190.4132 120.6415,-180.4133 117.1416,-190.4133 124.1416,-190.4132"/>
</g>
<!-- J -->
<g id="node5" class="node">
<title>J</title>
<ellipse fill="none" stroke="#000000" cx="120.6415" cy="-90" rx="82.6204" ry="18"/>
<text text-anchor="middle" x="120.6415" y="-85.8" font-family="Times,serif" font-size="14.00" fill="#000000">Join back to original</text>
</g>
<!-- S&#45;&gt;J -->
<g id="edge4" class="edge">
<title>S&#45;&gt;J</title>
<path fill="none" stroke="#000000" d="M120.6415,-143.8314C120.6415,-136.131 120.6415,-126.9743 120.6415,-118.4166"/>
<polygon fill="#000000" stroke="#000000" points="124.1416,-118.4132 120.6415,-108.4133 117.1416,-118.4133 124.1416,-118.4132"/>
</g>
<!-- F -->
<g id="node6" class="node">
<title>F</title>
<ellipse fill="none" stroke="#000000" cx="120.6415" cy="-18" rx="92.2679" ry="18"/>
<text text-anchor="middle" x="120.6415" y="-13.8" font-family="Times,serif" font-size="14.00" fill="#000000">filter out extra columns</text>
</g>
<!-- J&#45;&gt;F -->
<g id="edge5" class="edge">
<title>J&#45;&gt;F</title>
<path fill="none" stroke="#000000" d="M120.6415,-71.8314C120.6415,-64.131 120.6415,-54.9743 120.6415,-46.4166"/>
<polygon fill="#000000" stroke="#000000" points="124.1416,-46.4132 120.6415,-36.4133 117.1416,-46.4133 124.1416,-46.4132"/>
</g>
</g>
</svg>
